<mxfile host="app.diagrams.net" agent="Mozilla/5.0 (Windows NT 10.0; Win64; x64; rv:134.0) Gecko/20100101 Firefox/134.0" version="25.0.1">
  <diagram name="Page-1" id="sHfkZnYr7WtnaqoEsqCM">
    <mxGraphModel dx="1728" dy="510" grid="1" gridSize="10" guides="1" tooltips="1" connect="1" arrows="1" fold="1" page="1" pageScale="1" pageWidth="827" pageHeight="1169" math="0" shadow="0">
      <root>
        <mxCell id="0" />
        <mxCell id="1" parent="0" />
        <mxCell id="sHn7CH1aY6ciFTgk0AOF-37" value="Game_renderer (vga_drawer)" style="swimlane;whiteSpace=wrap;html=1;" vertex="1" parent="1">
          <mxGeometry x="70" y="197" width="290" height="533" as="geometry" />
        </mxCell>
        <mxCell id="sHn7CH1aY6ciFTgk0AOF-43" value="sprite " style="swimlane;whiteSpace=wrap;html=1;" vertex="1" parent="sHn7CH1aY6ciFTgk0AOF-37">
          <mxGeometry x="65" y="43" width="175" height="210" as="geometry" />
        </mxCell>
        <mxCell id="sHn7CH1aY6ciFTgk0AOF-44" value="Sperit_Lib" style="rounded=0;whiteSpace=wrap;html=1;" vertex="1" parent="sHn7CH1aY6ciFTgk0AOF-43">
          <mxGeometry x="30" y="30" width="120" height="60" as="geometry" />
        </mxCell>
        <mxCell id="sHn7CH1aY6ciFTgk0AOF-42" value="rgb_to_565" style="rounded=0;whiteSpace=wrap;html=1;" vertex="1" parent="sHn7CH1aY6ciFTgk0AOF-43">
          <mxGeometry x="30" y="130" width="120" height="60" as="geometry" />
        </mxCell>
        <mxCell id="sHn7CH1aY6ciFTgk0AOF-52" value="" style="shape=link;html=1;rounded=0;exitX=0.25;exitY=1;exitDx=0;exitDy=0;edgeStyle=elbowEdgeStyle;entryX=0.25;entryY=0;entryDx=0;entryDy=0;" edge="1" parent="sHn7CH1aY6ciFTgk0AOF-43" source="sHn7CH1aY6ciFTgk0AOF-44" target="sHn7CH1aY6ciFTgk0AOF-42">
          <mxGeometry width="100" relative="1" as="geometry">
            <mxPoint x="10" y="140" as="sourcePoint" />
            <mxPoint x="340" y="75" as="targetPoint" />
          </mxGeometry>
        </mxCell>
        <mxCell id="sHn7CH1aY6ciFTgk0AOF-53" value="[0:0] R,G,B" style="edgeLabel;html=1;align=center;verticalAlign=middle;resizable=0;points=[];" vertex="1" connectable="0" parent="sHn7CH1aY6ciFTgk0AOF-52">
          <mxGeometry x="-0.4897" y="-3" relative="1" as="geometry">
            <mxPoint x="3" y="10" as="offset" />
          </mxGeometry>
        </mxCell>
        <mxCell id="sHn7CH1aY6ciFTgk0AOF-73" value="" style="endArrow=classic;html=1;rounded=0;endSize=8;startSize=8;labelPosition=left;verticalLabelPosition=middle;align=right;verticalAlign=middle;" edge="1" parent="sHn7CH1aY6ciFTgk0AOF-43" target="sHn7CH1aY6ciFTgk0AOF-72">
          <mxGeometry width="50" height="50" relative="1" as="geometry">
            <mxPoint x="-155" y="150" as="sourcePoint" />
            <mxPoint x="110" y="350" as="targetPoint" />
          </mxGeometry>
        </mxCell>
        <mxCell id="sHn7CH1aY6ciFTgk0AOF-50" value="" style="elbow=horizontal;endArrow=classic;html=1;rounded=0;endSize=8;startSize=8;" edge="1" parent="sHn7CH1aY6ciFTgk0AOF-37" target="sHn7CH1aY6ciFTgk0AOF-78">
          <mxGeometry width="50" height="50" relative="1" as="geometry">
            <mxPoint x="-90" y="253" as="sourcePoint" />
            <mxPoint x="-30" y="123" as="targetPoint" />
          </mxGeometry>
        </mxCell>
        <mxCell id="sHn7CH1aY6ciFTgk0AOF-51" value="[9:0]x,y_coord" style="edgeLabel;html=1;align=center;verticalAlign=middle;resizable=0;points=[];" vertex="1" connectable="0" parent="sHn7CH1aY6ciFTgk0AOF-50">
          <mxGeometry x="-0.0168" y="2" relative="1" as="geometry">
            <mxPoint x="-24" y="-8" as="offset" />
          </mxGeometry>
        </mxCell>
        <mxCell id="sHn7CH1aY6ciFTgk0AOF-57" style="edgeStyle=elbowEdgeStyle;rounded=0;orthogonalLoop=1;jettySize=auto;html=1;exitX=0.5;exitY=0;exitDx=0;exitDy=0;entryX=0.5;entryY=1;entryDx=0;entryDy=0;elbow=vertical;" edge="1" parent="sHn7CH1aY6ciFTgk0AOF-37" source="sHn7CH1aY6ciFTgk0AOF-40" target="sHn7CH1aY6ciFTgk0AOF-80">
          <mxGeometry relative="1" as="geometry">
            <mxPoint x="340" y="383" as="targetPoint" />
          </mxGeometry>
        </mxCell>
        <mxCell id="sHn7CH1aY6ciFTgk0AOF-77" value="[15:0]rgb_board" style="edgeLabel;html=1;align=center;verticalAlign=middle;resizable=0;points=[];" vertex="1" connectable="0" parent="sHn7CH1aY6ciFTgk0AOF-57">
          <mxGeometry x="0.693" y="1" relative="1" as="geometry">
            <mxPoint x="-4" y="13" as="offset" />
          </mxGeometry>
        </mxCell>
        <mxCell id="sHn7CH1aY6ciFTgk0AOF-40" value="Border" style="swimlane;whiteSpace=wrap;html=1;" vertex="1" parent="sHn7CH1aY6ciFTgk0AOF-37">
          <mxGeometry x="70" y="388" width="180" height="120" as="geometry" />
        </mxCell>
        <mxCell id="sHn7CH1aY6ciFTgk0AOF-54" style="edgeStyle=elbowEdgeStyle;rounded=0;orthogonalLoop=1;jettySize=auto;html=1;exitX=0.5;exitY=1;exitDx=0;exitDy=0;entryX=0.5;entryY=0;entryDx=0;entryDy=0;" edge="1" parent="sHn7CH1aY6ciFTgk0AOF-37" source="sHn7CH1aY6ciFTgk0AOF-42" target="sHn7CH1aY6ciFTgk0AOF-80">
          <mxGeometry relative="1" as="geometry">
            <mxPoint x="400.0000000000002" y="218" as="targetPoint" />
            <mxPoint x="240" y="264" as="sourcePoint" />
          </mxGeometry>
        </mxCell>
        <mxCell id="sHn7CH1aY6ciFTgk0AOF-55" value="[15:0]rgb_sprite" style="edgeLabel;html=1;align=center;verticalAlign=middle;resizable=0;points=[];" vertex="1" connectable="0" parent="sHn7CH1aY6ciFTgk0AOF-54">
          <mxGeometry x="0.7367" y="3" relative="1" as="geometry">
            <mxPoint y="-21" as="offset" />
          </mxGeometry>
        </mxCell>
        <mxCell id="sHn7CH1aY6ciFTgk0AOF-79" style="edgeStyle=elbowEdgeStyle;rounded=0;orthogonalLoop=1;jettySize=auto;html=1;entryX=0;entryY=0.75;entryDx=0;entryDy=0;" edge="1" parent="sHn7CH1aY6ciFTgk0AOF-37" source="sHn7CH1aY6ciFTgk0AOF-78" target="sHn7CH1aY6ciFTgk0AOF-44">
          <mxGeometry relative="1" as="geometry">
            <Array as="points">
              <mxPoint x="40" y="118" />
            </Array>
          </mxGeometry>
        </mxCell>
        <mxCell id="sHn7CH1aY6ciFTgk0AOF-81" style="edgeStyle=elbowEdgeStyle;rounded=0;orthogonalLoop=1;jettySize=auto;html=1;entryX=0.007;entryY=0.328;entryDx=0;entryDy=0;entryPerimeter=0;" edge="1" parent="sHn7CH1aY6ciFTgk0AOF-37" source="sHn7CH1aY6ciFTgk0AOF-78" target="sHn7CH1aY6ciFTgk0AOF-80">
          <mxGeometry relative="1" as="geometry">
            <Array as="points">
              <mxPoint x="40" y="273" />
            </Array>
          </mxGeometry>
        </mxCell>
        <mxCell id="sHn7CH1aY6ciFTgk0AOF-78" value="" style="shape=waypoint;sketch=0;fillStyle=solid;size=6;pointerEvents=1;points=[];fillColor=none;resizable=0;rotatable=0;perimeter=centerPerimeter;snapToPoint=1;" vertex="1" parent="sHn7CH1aY6ciFTgk0AOF-37">
          <mxGeometry x="30" y="243" width="20" height="20" as="geometry" />
        </mxCell>
        <mxCell id="sHn7CH1aY6ciFTgk0AOF-82" style="edgeStyle=elbowEdgeStyle;rounded=0;orthogonalLoop=1;jettySize=auto;html=1;" edge="1" parent="sHn7CH1aY6ciFTgk0AOF-37" source="sHn7CH1aY6ciFTgk0AOF-80">
          <mxGeometry relative="1" as="geometry">
            <mxPoint x="370" y="243" as="targetPoint" />
            <Array as="points">
              <mxPoint x="260" y="283" />
            </Array>
          </mxGeometry>
        </mxCell>
        <mxCell id="sHn7CH1aY6ciFTgk0AOF-84" value="[15:0]rgb_game" style="edgeLabel;html=1;align=center;verticalAlign=middle;resizable=0;points=[];" vertex="1" connectable="0" parent="sHn7CH1aY6ciFTgk0AOF-82">
          <mxGeometry x="0.5623" y="-1" relative="1" as="geometry">
            <mxPoint y="-11" as="offset" />
          </mxGeometry>
        </mxCell>
        <mxCell id="sHn7CH1aY6ciFTgk0AOF-80" value="Game Mux" style="rounded=0;whiteSpace=wrap;html=1;" vertex="1" parent="sHn7CH1aY6ciFTgk0AOF-37">
          <mxGeometry x="100" y="293" width="120" height="60" as="geometry" />
        </mxCell>
        <mxCell id="sHn7CH1aY6ciFTgk0AOF-75" style="edgeStyle=elbowEdgeStyle;rounded=0;orthogonalLoop=1;jettySize=auto;html=1;entryX=0;entryY=0.75;entryDx=0;entryDy=0;" edge="1" parent="1" source="sHn7CH1aY6ciFTgk0AOF-72" target="sHn7CH1aY6ciFTgk0AOF-80">
          <mxGeometry relative="1" as="geometry">
            <mxPoint x="486.94915254237276" y="483.5028248587571" as="targetPoint" />
            <Array as="points">
              <mxPoint x="90" y="400" />
            </Array>
          </mxGeometry>
        </mxCell>
        <mxCell id="sHn7CH1aY6ciFTgk0AOF-83" style="edgeStyle=orthogonalEdgeStyle;rounded=0;orthogonalLoop=1;jettySize=auto;html=1;entryX=0;entryY=0.5;entryDx=0;entryDy=0;" edge="1" parent="1" source="sHn7CH1aY6ciFTgk0AOF-72" target="sHn7CH1aY6ciFTgk0AOF-40">
          <mxGeometry relative="1" as="geometry">
            <Array as="points">
              <mxPoint x="90" y="645" />
            </Array>
          </mxGeometry>
        </mxCell>
        <mxCell id="sHn7CH1aY6ciFTgk0AOF-72" value="" style="shape=waypoint;sketch=0;fillStyle=solid;size=6;pointerEvents=1;points=[];fillColor=none;resizable=0;rotatable=0;perimeter=centerPerimeter;snapToPoint=1;" vertex="1" parent="1">
          <mxGeometry x="80" y="380" width="20" height="20" as="geometry" />
        </mxCell>
        <mxCell id="sHn7CH1aY6ciFTgk0AOF-47" value="" style="edgeStyle=elbowEdgeStyle;endArrow=classic;html=1;rounded=0;endSize=8;startSize=8;labelPosition=left;verticalLabelPosition=middle;align=right;verticalAlign=middle;entryX=0;entryY=0.25;entryDx=0;entryDy=0;exitX=0.717;exitY=0.588;exitDx=0;exitDy=0;exitPerimeter=0;" edge="1" parent="1" source="sHn7CH1aY6ciFTgk0AOF-72" target="sHn7CH1aY6ciFTgk0AOF-44">
          <mxGeometry width="50" height="50" relative="1" as="geometry">
            <mxPoint x="-30" y="356" as="sourcePoint" />
            <mxPoint x="110" y="350" as="targetPoint" />
            <Array as="points">
              <mxPoint x="90" y="280" />
            </Array>
          </mxGeometry>
        </mxCell>
        <mxCell id="sHn7CH1aY6ciFTgk0AOF-48" value="[2:0] entity" style="edgeLabel;html=1;align=center;verticalAlign=middle;resizable=0;points=[];" vertex="1" connectable="0" parent="sHn7CH1aY6ciFTgk0AOF-47">
          <mxGeometry x="0.0629" relative="1" as="geometry">
            <mxPoint x="-80" y="86" as="offset" />
          </mxGeometry>
        </mxCell>
      </root>
    </mxGraphModel>
  </diagram>
</mxfile>
